HIERARCHY
ROOT pelvis
{
  OFFSET 0 100 0
  CHANNELS 6 Xposition Yposition Zposition Zrotation Xrotation Yrotation
  JOINT pelvis_right_femur
  {
    OFFSET -10.78128 -3.44521 -0.5502486
    CHANNELS 3 Zrotation Xrotation Yrotation
    JOINT right_femur_tibia
    {
      OFFSET -0.8047443 -44.0398 -0.1307829
      CHANNELS 3 Zrotation Xrotation Yrotation
      JOINT right_tibia_foot
      {
        OFFSET 3.006224 -47.83518 -5
        CHANNELS 3 Zrotation Xrotation Yrotation
        End Site
        {
          OFFSET 0 -5 15
        }
      }
    }
  }
  JOINT pelvis_left_femur
  {
    OFFSET 10.78128 -3.44521 -0.5502486
    CHANNELS 3 Zrotation Xrotation Yrotation
    JOINT left_femur_tibia
    {
      OFFSET 0.8047443 -44.0398 -0.1307829
      CHANNELS 3 Zrotation Xrotation Yrotation
      JOINT left_tibia_foot
      {
        OFFSET -4.370144 -48.10324 -4.275266
        CHANNELS 3 Zrotation Xrotation Yrotation
        End Site
        {
          OFFSET 0 -5 15
        }
      }
    }
  }
  JOINT pelvis_spine1
  {
    OFFSET 0 6.468898 -3.129235
    CHANNELS 3 Zrotation Xrotation Yrotation
    JOINT spine1
    {
      OFFSET 0 23.15396 4.99043
      CHANNELS 3 Zrotation Xrotation Yrotation
      JOINT spine2
      {
        OFFSET 0 20.79997 -5.064912
        CHANNELS 3 Zrotation Xrotation Yrotation
        JOINT neck
        {
          OFFSET 0 14.38658 9.616178
          CHANNELS 3 Zrotation Xrotation Yrotation
          End Site
          {
            OFFSET 0 20 0
          }
        }
      }
      JOINT right_manubrium
      {
        OFFSET -5.722621 16.35077 3.967754
        CHANNELS 3 Zrotation Xrotation Yrotation
        JOINT right_clavicle
        {
          OFFSET -13.16364 1.694482 -4.693211
          CHANNELS 3 Zrotation Xrotation Yrotation
          JOINT right_humerus
          {
            OFFSET -28.5034 -0.3100689 -2.792744
            CHANNELS 3 Zrotation Xrotation Yrotation
            JOINT right_radius
            {
              OFFSET -25.15693 0.02248979 -1.271978
              CHANNELS 3 Zrotation Xrotation Yrotation
              End Site
              {
                OFFSET -15 0 0
              }
            }
          }
        }
      }
      JOINT left_manubrium
      {
        OFFSET 5.722621 16.35077 3.967754
        CHANNELS 3 Zrotation Xrotation Yrotation
        JOINT left_clavicle
        {
          OFFSET 13.16364 1.694482 -4.693211
          CHANNELS 3 Zrotation Xrotation Yrotation
          JOINT left_humerus
          {
            OFFSET 29.39168 -1.063119 -2.237045
            CHANNELS 3 Zrotation Xrotation Yrotation
            JOINT left_radius
            {
              OFFSET 24.59957 -0.9528479 0.9047498
              CHANNELS 3 Zrotation Xrotation Yrotation
              End Site
              {
                OFFSET 15 -0 -0
              }
            }
          }
        }
      }
    }
  }
}
MOTION
Frames: 13
Frame Time: 0.0416666666667
0 103.5113 0 2.153541 -2.798436 0.1171833 1.241957 -11.92052 6.218545 -0 35.23503 -0 -4.966853 -17.93208 -4.119678 -7.108716 13.19643 -24.27475 -0 3.276446 -0 -1.129448 -21.19896 21.94181 -4.455543 -3.21062 3.608226 1.856716 7.512917 -7.448028 0.5631481 24.11195 7.512845 3.831059 -21.69379 7.984706 6.274954 -18.72005 10.96614 86.51862 35.12786 -21.67314 -0 0 15.92611 -8.590521 7.867331 4.745749 4.425594 -18.64352 -3.792528 -100.1488 41.66941 27.61131 0 0 -20.08083 -11.7622 16.91245 27.32752
0.1167611 104.3854 1.269197 1.74574 -2.429104 0.1489922 1.817944 -13.77191 6.257757 -0 35.30047 -0 -5.237912 -16.86232 -4.188144 -6.785618 13.51415 -23.93217 -0 3.875687 -0 -1.195642 -21.26975 21.57518 -4.150498 -2.9577 3.398937 1.98035 7.515464 -7.583301 0.5868682 23.86863 7.590338 3.850569 -22.04614 8.1037 6.269325 -18.58561 10.99329 86.61506 35.21027 -21.69573 -0 0 15.6088 -8.541154 7.971445 4.85467 4.472069 -18.7426 -3.661901 -99.45632 40.99745 26.98609 0 0 -20.20517 -10.96533 16.80641 26.57876
0.2094828 105.3394 2.838667 1.067111 -1.71421 0.2538398 2.816702 -16.94422 6.438832 -0 34.88737 -0 -5.642745 -15.29392 -4.238472 -6.2913 13.98622 -23.43541 -0 4.914585 -0 -1.135912 -21.39395 21.05217 -3.638512 -2.577695 3.133161 2.20257 7.50266 -7.781661 0.6853107 23.43709 7.679687 3.832773 -22.74997 8.396017 6.158315 -18.40869 11.01991 86.81929 35.20571 -21.75108 -0 0 15.14415 -8.281713 8.074996 4.91393 4.624158 -18.93777 -3.335902 -98.30113 39.68596 25.91825 0 0 -20.47319 -9.244679 16.71921 24.90924
0.2562996 106.2045 4.476825 0.7142656 -1.26231 0.4474823 3.376918 -18.79582 6.410459 -0 33.02451 -0 -5.458032 -16.03155 -4.099815 -5.953693 14.86855 -24.09688 -0 5.228019 -0 -2.546665 -22.16545 20.10802 -3.202571 -2.343804 3.039059 2.137597 6.808997 -7.551928 0.9653927 23.48323 7.674388 3.777247 -22.88658 8.836611 5.806922 -18.06999 10.66367 86.85306 34.71429 -21.8299 -0 0 15.50359 -7.30609 7.94258 4.10464 4.982895 -18.65497 -2.955397 -99.03981 40.56594 26.32307 0 0 -20.88929 -9.62797 17.20872 25.59591
0.2665007 106.9585 6.053939 0.5984298 -1.036932 0.7070005 3.58621 -19.44692 6.407871 -0 31.41273 -0 -5.033911 -17.68489 -3.913842 -5.802208 15.57739 -25.16175 -0 5.155232 -0 -4.028391 -22.88052 19.36945 -2.920797 -2.283746 3.096764 1.956312 6.012497 -7.163268 1.297559 23.72578 7.582449 3.65256 -22.78865 9.298953 5.397044 -17.79417 10.22709 86.81886 34.07641 -21.82158 -0 0 16.19219 -6.169195 7.684405 3.070986 5.330862 -18.20089 -2.566866 -100.4174 41.96848 27.31297 0 0 -21.14946 -10.50572 17.89863 26.79828
0.265264 107.6624 7.59345 0.5341867 -0.8715762 1.005331 3.718094 -19.77375 6.506445 -0 30.6462 -0 -4.768421 -18.67255 -3.808297 -5.752507 15.86381 -25.7601 -0 5.145344 -0 -4.602005 -23.17788 19.11428 -2.778789 -2.28934 3.177811 1.87076 5.60273 -6.947011 1.505609 23.83527 7.506814 3.538682 -22.80517 9.608953 5.143833 -17.68206 9.995404 86.81561 33.7059 -21.78408 -0 0 16.59019 -5.474915 7.516092 2.472074 5.530642 -17.95762 -2.281109 -101.0828 42.50465 27.78953 0 0 -21.23219 -10.63035 18.3306 27.06341
0.2810749 108.4348 9.289196 0.2753986 -0.4927631 1.317526 4.149472 -21.02008 6.72474 -0 30.6734 -0 -5.021292 -17.59635 -3.852806 -5.6454 15.73986 -25.24714 -0 5.746812 -0 -3.799656 -22.94795 19.32126 -2.682134 -2.196276 3.119399 2.052365 5.851738 -7.15241 1.477142 23.52159 7.571136 3.550693 -23.26896 9.680459 5.215892 -17.70248 10.14761 86.90691 33.99242 -21.80365 -0 0 16.15925 -5.605996 7.678556 2.738078 5.547102 -18.21836 -2.134763 -99.93609 41.22227 26.78709 0 0 -21.25 -9.07033 18.20751 25.33095
0.3413781 109.3592 11.47459 -0.3233703 0.2222427 1.650424 5.051076 -23.98583 6.820995 -0 30.58214 -0 -5.852887 -13.74665 -3.911087 -5.337604 15.3227 -23.28498 -0 7.326937 -0 -2.130097 -22.38296 19.39479 -2.489602 -1.820109 2.831299 2.520955 6.718312 -7.802528 1.218907 22.69164 7.826914 3.752405 -24.25229 9.508561 5.519818 -17.74287 10.6671 87.17546 34.77374 -21.94495 -0 0 14.73561 -6.774192 8.256122 3.977707 5.467469 -19.09761 -2.166428 -96.95832 37.92221 24.23472 0 0 -21.55878 -5.814044 17.24882 21.63675
0.4735839 110.3398 14.4796 -1.107368 1.151161 2.020395 6.115324 -28.33922 6.384579 -0 28.29037 -0 -6.930066 -7.764638 -3.739476 -4.880706 14.7037 -19.94488 -0 9.683219 -0 -0.6188556 -21.97398 18.60638 -2.172634 -1.128419 2.453878 3.167674 7.935458 -8.720677 0.835213 21.49496 8.181143 4.082624 -25.53718 9.116143 5.660535 -17.78754 11.37166 87.75166 35.19008 -22.35565 -0 0 12.663 -8.932123 8.986228 5.957693 5.468571 -20.56816 -2.437204 -93.19682 33.27413 20.94164 0 0 -22.721 -1.892932 15.26021 17.1861
0.6971252 111.0524 18.47953 -1.643584 2.064616 2.375156 6.618182 -32.78904 5.08191 -0 21.4642 -0 -7.830281 -1.173662 -3.331392 -4.539895 13.89466 -15.55879 -0 12.10373 -0 0.2408102 -22.18426 16.82959 -1.941809 -0.3465909 2.322757 3.89108 9.28905 -9.739025 0.4307091 20.17102 8.430019 4.380044 -26.83034 8.474308 5.221848 -17.99997 12.08441 88.77106 34.29862 -23.29042 -0 0 10.42978 -11.82716 9.404333 8.324236 5.670156 -22.59822 -2.996051 -89.57512 28.2729 17.5836 0 0 -25.22237 1.463446 12.30923 13.32485
1.008301 110.9573 23.44965 -1.306925 2.560379 2.561541 5.553698 -35.37435 2.6421 -0 8.470665 -0 -8.177013 4.453975 -3.09004 -4.692685 12.8284 -10.29621 -0 13.39372 -0 0.845229 -23.19197 14.5967 -2.219591 0.09255914 2.839608 4.636953 10.80706 -10.79326 0.07576767 18.97091 8.24456 4.344145 -27.77753 7.444882 3.763441 -18.70262 12.70445 90.45547 31.07366 -24.97945 -0 0 8.28453 -15.25232 8.932855 10.8121 6.0432 -25.28559 -3.936795 -86.20436 23.46722 14.09974 0 0 -29.4707 3.643145 8.482044 10.62011
1.308769 109.4254 29.10586 0.5675225 1.607925 2.512759 2.31074 -33.32139 -0.3332476 0 -8.73445 0 -7.358844 5.624805 -4.200769 -5.709052 12.87869 -5.382886 -0 11.32514 -0 1.324285 -24.98986 13.04956 -3.401573 -0.4748221 4.011022 5.013788 11.87375 -11.40664 0.1609685 18.76019 7.010221 3.337764 -27.13869 6.255902 0.6051858 -19.61119 12.6562 93.0236 24.3045 -27.11379 -0 0 6.285769 -17.83957 6.930639 12.00015 6.482764 -28.05149 -5.08735 -82.94753 20.41857 9.601252 0 0 -35.28011 4.183344 4.953901 9.357323
1.3529 107.452 35.42862 1.813375 -0.549923 2.701544 1.30877 -29.66486 0.3583091 0 -10.21686 0 -6.698938 0.6652327 -7.442154 -6.229863 18.6202 -5.126853 -0 8.910516 -0 -0.07443142 -24.95723 13.40247 -4.007964 -1.48007 3.289582 4.336297 10.24705 -10.62826 1.247792 20.21515 5.166529 1.877214 -23.85173 6.271903 -1.590091 -17.58383 11.2761 94.44397 20.05613 -27.23697 -0 0 4.102172 -15.62012 5.223288 9.302247 6.58493 -27.38971 -5.002276 -80.65012 21.49682 4.105555 0 0 -36.45344 4.044929 5.485174 8.302157
